<mxfile host="app.diagrams.net" agent="Mozilla/5.0 (Windows NT 10.0; Win64; x64) AppleWebKit/537.36 (KHTML, like Gecko) Chrome/136.0.0.0 Safari/537.36" version="27.0.2">
  <diagram name="Page-1" id="coQrz9HvUkuHpYVKgYlH">
    <mxGraphModel dx="2515" dy="789" grid="1" gridSize="10" guides="1" tooltips="1" connect="1" arrows="1" fold="1" page="1" pageScale="1" pageWidth="850" pageHeight="1100" math="0" shadow="0">
      <root>
        <mxCell id="0" />
        <mxCell id="1" parent="0" />
        <mxCell id="4DSJqVF6IeCHydDA3MtR-1" value="&lt;ol type=&quot;1&quot; start=&quot;1&quot; style=&quot;margin-top:0in&quot;&gt;&lt;font style=&quot;font-size: 16px;&quot;&gt;&lt;p class=&quot;MsoNormal&quot;&gt;&lt;b&gt;&lt;u&gt;&lt;br&gt;Use&lt;/u&gt;&lt;/b&gt;&lt;b&gt;&lt;u&gt; case&lt;/u&gt;&lt;/b&gt;&lt;b&gt;&lt;u&gt;&lt;span lang=&quot;EL&quot;&gt; 3 (&lt;/span&gt;Create&lt;/u&gt;&lt;/b&gt;&lt;b&gt;&lt;u&gt; poll&lt;/u&gt;&lt;/b&gt;&lt;span style=&quot;&quot; lang=&quot;EL&quot;&gt;&lt;u style=&quot;font-weight: bold;&quot;&gt;)&lt;/u&gt;&lt;br&gt;&lt;br&gt;&lt;/span&gt;&lt;/p&gt; &lt;/font&gt;&lt;li style=&quot;color: black;&quot; class=&quot;MsoNormal&quot;&gt;&lt;span lang=&quot;EL&quot;&gt;&lt;font style=&quot;font-size: 16px;&quot;&gt;Ο διαχειριστής επιλέγει να μεταβεί στην οθόνη ψηφοφοριών.&lt;/font&gt;&lt;/span&gt;&lt;/li&gt;&lt;font style=&quot;font-size: 16px;&quot;&gt;&lt;br&gt; &lt;/font&gt;&lt;li style=&quot;color: black;&quot; class=&quot;MsoNormal&quot;&gt;&lt;font style=&quot;font-size: 16px;&quot;&gt;T&lt;span lang=&quot;EL&quot;&gt;ο σύστημα του εμφανίζει την οθόνη ψηφοφοριών&lt;/span&gt;&lt;/font&gt;&lt;/li&gt;&lt;font style=&quot;font-size: 16px;&quot;&gt;&lt;br&gt; &lt;/font&gt;&lt;li style=&quot;color: black;&quot; class=&quot;MsoNormal&quot;&gt;&lt;span lang=&quot;EL&quot;&gt;&lt;font style=&quot;font-size: 16px;&quot;&gt;Ο διαχειριστής συμπληρώνει την φόρμα στοιχείων της ψηφοφορίας και αιτείται στο σύστημα να την ανεβάσει στη λίστα ψηφοφοριών.&lt;/font&gt;&lt;/span&gt;&lt;/li&gt;&lt;font style=&quot;font-size: 16px;&quot;&gt;&lt;br&gt; &lt;/font&gt;&lt;li style=&quot;color: black;&quot; class=&quot;MsoNormal&quot;&gt;&lt;span lang=&quot;EL&quot;&gt;&lt;font style=&quot;font-size: 16px;&quot;&gt;Το σύστημα ελέγχει την εγκυρότητα των στοιχείων της φόρμας.&lt;/font&gt;&lt;/span&gt;&lt;/li&gt;&lt;font style=&quot;font-size: 16px;&quot;&gt;&lt;br&gt; &lt;/font&gt;&lt;li style=&quot;color: black;&quot; class=&quot;MsoNormal&quot;&gt;&lt;span lang=&quot;EL&quot;&gt;&lt;font style=&quot;font-size: 16px;&quot;&gt;Το σύστημα ενημερώνει την λίστα ψηφοφοριών&lt;/font&gt;&lt;/span&gt;&lt;/li&gt;&lt;font style=&quot;font-size: 16px;&quot;&gt;&lt;br&gt; &lt;/font&gt;&lt;li style=&quot;color: black;&quot; class=&quot;MsoNormal&quot;&gt;&lt;span lang=&quot;EL&quot;&gt;&lt;font style=&quot;font-size: 16px;&quot;&gt;Το σύστημα στέλνει ειδοποίηση στην ένοικο και εμφανίζεται στην οθόνη ειδοποιήσεών του.&lt;/font&gt;&lt;/span&gt;&lt;/li&gt;&lt;font style=&quot;font-size: 16px;&quot;&gt;&lt;br&gt; &lt;/font&gt;&lt;li style=&quot;color: black;&quot; class=&quot;MsoNormal&quot;&gt;&lt;span lang=&quot;EL&quot;&gt;&lt;font style=&quot;font-size: 16px;&quot;&gt;Ο ένοικος μεταβαίνει στην οθόνη ψηφοφοριών και καταχωρεί την επιλογή του.&lt;/font&gt;&lt;/span&gt;&lt;/li&gt;&lt;font style=&quot;font-size: 16px;&quot;&gt;&lt;br&gt; &lt;/font&gt;&lt;li style=&quot;color: black;&quot; class=&quot;MsoNormal&quot;&gt;&lt;span lang=&quot;EL&quot;&gt;&lt;font style=&quot;font-size: 16px;&quot;&gt;Το σύστημα ενημερώνει τη λίστα ψηφοφοριών με τις επιλογές των ενοίκων και υπολογίζει το νέο ποσοστό για την κάθε επιλογή.&lt;/font&gt;&lt;/span&gt;&lt;/li&gt;&lt;font style=&quot;font-size: 16px;&quot;&gt;&lt;br&gt; &lt;/font&gt;&lt;li style=&quot;color: black;&quot; class=&quot;MsoNormal&quot;&gt;&lt;font style=&quot;font-size: 16px;&quot;&gt;&lt;span lang=&quot;EL&quot;&gt;Με την λήξη της χρονικής διάρκειας του &lt;/span&gt;poll&lt;span lang=&quot;EL&quot;&gt; το σύστημα εμφανίζει το αποτέλεσμα του στην οθόνη ψηφοφοριών του&lt;br&gt;     ενοίκου και στην οθόνη ψηφοφοριών του διαχειριστή&lt;/span&gt;&lt;/font&gt;&lt;/li&gt;&lt;/ol&gt;&lt;div&gt;&lt;font color=&quot;#ededed&quot;&gt;&lt;span style=&quot;font-size: 16px;&quot;&gt;&lt;br&gt;&lt;/span&gt;&lt;/font&gt;&lt;/div&gt;&lt;div&gt;&lt;font color=&quot;#ededed&quot;&gt;&lt;span style=&quot;font-size: 16px;&quot;&gt;&lt;span style=&quot;white-space: pre;&quot;&gt;&#x9;&lt;/span&gt;&lt;br&gt;&lt;/span&gt;&lt;/font&gt;&lt;span style=&quot;background-color: transparent; color: black;&quot; lang=&quot;EL&quot;&gt;&lt;span style=&quot;white-space: pre;&quot;&gt;&lt;br&gt;&lt;/span&gt;&lt;/span&gt;&lt;/div&gt;&lt;div&gt;&lt;span style=&quot;background-color: transparent; color: black;&quot; lang=&quot;EL&quot;&gt;&lt;span style=&quot;white-space: pre;&quot;&gt;&#x9;&lt;/span&gt;Εναλλακτική ροή 1 ( &lt;/span&gt;&lt;span style=&quot;background-color: transparent; color: black;&quot;&gt;Poll&lt;/span&gt;&lt;span style=&quot;background-color: transparent; color: black;&quot;&gt; &lt;/span&gt;&lt;span style=&quot;background-color: transparent; color: black;&quot;&gt;upload&lt;/span&gt;&lt;span style=&quot;background-color: transparent; color: black;&quot;&gt; &lt;span lang=&quot;EL&quot;&gt;λάθος)&lt;/span&gt;&lt;/span&gt;&lt;/div&gt;&lt;br&gt;&lt;p class=&quot;MsoNormal&quot;&gt;&lt;span style=&quot;color: black;&quot; lang=&quot;EL&quot;&gt;&lt;span style=&quot;white-space: pre;&quot;&gt;&#x9;&lt;/span&gt;1. Το σύστημα βρίσκει λάθος στην φόρμα και αποκρίνεται με μήνυμα λάθους εξηγώντας γιατί έχει λάθος η φόρμα.&amp;nbsp;&lt;/span&gt;&lt;span style=&quot;color: black;&quot;&gt;&lt;/span&gt;&lt;/p&gt;&lt;ol type=&quot;1&quot; start=&quot;1&quot; style=&quot;margin-top:0in&quot;&gt;&lt;br&gt;&lt;/ol&gt;" style="text;html=1;align=left;verticalAlign=middle;resizable=0;points=[];autosize=1;strokeColor=none;fillColor=none;" parent="1" vertex="1">
          <mxGeometry x="-810" y="127.5" width="1000" height="610" as="geometry" />
        </mxCell>
        <mxCell id="4DSJqVF6IeCHydDA3MtR-2" value="&lt;div&gt;&lt;br&gt;&lt;/div&gt;&lt;div&gt;&lt;br&gt;&lt;/div&gt;" style="shape=umlBoundary;whiteSpace=wrap;html=1;" parent="1" vertex="1">
          <mxGeometry x="605" y="100" width="70" height="60" as="geometry" />
        </mxCell>
        <mxCell id="4DSJqVF6IeCHydDA3MtR-3" value="Manager Poll Screen" style="text;html=1;align=center;verticalAlign=middle;resizable=0;points=[];autosize=1;strokeColor=none;fillColor=none;" parent="1" vertex="1">
          <mxGeometry x="570" y="70" width="140" height="30" as="geometry" />
        </mxCell>
        <mxCell id="4DSJqVF6IeCHydDA3MtR-4" value="" style="shape=umlBoundary;whiteSpace=wrap;html=1;" parent="1" vertex="1">
          <mxGeometry x="1275" y="104.25" width="100" height="80" as="geometry" />
        </mxCell>
        <mxCell id="4DSJqVF6IeCHydDA3MtR-5" value="Tenant Notification Screen" style="text;html=1;align=center;verticalAlign=middle;resizable=0;points=[];autosize=1;strokeColor=none;fillColor=none;" parent="1" vertex="1">
          <mxGeometry x="1250" y="70" width="160" height="30" as="geometry" />
        </mxCell>
        <mxCell id="4DSJqVF6IeCHydDA3MtR-6" value="&lt;div&gt;&lt;br&gt;&lt;/div&gt;&lt;div&gt;&lt;br&gt;&lt;/div&gt;" style="shape=umlBoundary;whiteSpace=wrap;html=1;" parent="1" vertex="1">
          <mxGeometry x="1565" y="114.25" width="70" height="60" as="geometry" />
        </mxCell>
        <mxCell id="4DSJqVF6IeCHydDA3MtR-7" value="Tenant Poll Screen" style="text;html=1;align=center;verticalAlign=middle;resizable=0;points=[];autosize=1;strokeColor=none;fillColor=none;rotation=0;" parent="1" vertex="1">
          <mxGeometry x="1555" y="84.25" width="120" height="30" as="geometry" />
        </mxCell>
        <mxCell id="4DSJqVF6IeCHydDA3MtR-8" value="Notification&amp;nbsp;&lt;div&gt;List&lt;/div&gt;" style="ellipse;shape=umlEntity;whiteSpace=wrap;html=1;" parent="1" vertex="1">
          <mxGeometry x="1030" y="100" width="70" height="75" as="geometry" />
        </mxCell>
        <mxCell id="4DSJqVF6IeCHydDA3MtR-9" value="Poll list" style="ellipse;shape=umlEntity;whiteSpace=wrap;html=1;" parent="1" vertex="1">
          <mxGeometry x="770" y="97.5" width="80" height="80" as="geometry" />
        </mxCell>
        <mxCell id="4DSJqVF6IeCHydDA3MtR-10" value="" style="shape=umlLifeline;perimeter=lifelinePerimeter;whiteSpace=wrap;html=1;container=1;dropTarget=0;collapsible=0;recursiveResize=0;outlineConnect=0;portConstraint=eastwest;newEdgeStyle={&quot;curved&quot;:0,&quot;rounded&quot;:0};participant=umlActor;" parent="1" vertex="1">
          <mxGeometry x="295" y="230" width="20" height="1037.5" as="geometry" />
        </mxCell>
        <mxCell id="4DSJqVF6IeCHydDA3MtR-11" value="Manager" style="text;html=1;align=center;verticalAlign=middle;resizable=0;points=[];autosize=1;strokeColor=none;fillColor=none;" parent="1" vertex="1">
          <mxGeometry x="270" y="195" width="70" height="30" as="geometry" />
        </mxCell>
        <mxCell id="4DSJqVF6IeCHydDA3MtR-12" value="" style="shape=umlLifeline;perimeter=lifelinePerimeter;whiteSpace=wrap;html=1;container=1;dropTarget=0;collapsible=0;recursiveResize=0;outlineConnect=0;portConstraint=eastwest;newEdgeStyle={&quot;curved&quot;:0,&quot;rounded&quot;:0};participant=umlActor;points=[[0.58,0.7,0,0,0]];" parent="1" vertex="1">
          <mxGeometry x="230" y="230" width="20" height="1037.5" as="geometry" />
        </mxCell>
        <mxCell id="4DSJqVF6IeCHydDA3MtR-13" value="Tenant" style="text;html=1;align=center;verticalAlign=middle;resizable=0;points=[];autosize=1;strokeColor=none;fillColor=none;" parent="1" vertex="1">
          <mxGeometry x="210" y="195" width="60" height="30" as="geometry" />
        </mxCell>
        <mxCell id="4DSJqVF6IeCHydDA3MtR-14" value=":Mng_Poll_Scr" style="shape=umlLifeline;perimeter=lifelinePerimeter;whiteSpace=wrap;html=1;container=1;dropTarget=0;collapsible=0;recursiveResize=0;outlineConnect=0;portConstraint=eastwest;newEdgeStyle={&quot;curved&quot;:0,&quot;rounded&quot;:0};" parent="1" vertex="1">
          <mxGeometry x="590" y="225" width="100" height="1042.5" as="geometry" />
        </mxCell>
        <mxCell id="4DSJqVF6IeCHydDA3MtR-15" value="" style="html=1;points=[[0,0,0,0,0],[0,1,0,0,-5],[1,0,0,0,5],[1,0.25,0,0,0],[1,0.5,0,0,0],[1,0.83,0,0,0],[1,0.91,0,0,0],[1,1,0,0,-5]];perimeter=orthogonalPerimeter;outlineConnect=0;targetShapes=umlLifeline;portConstraint=eastwest;newEdgeStyle={&quot;curved&quot;:0,&quot;rounded&quot;:0};" parent="4DSJqVF6IeCHydDA3MtR-14" vertex="1">
          <mxGeometry x="45" y="130" width="10" height="640" as="geometry" />
        </mxCell>
        <mxCell id="4DSJqVF6IeCHydDA3MtR-16" style="edgeStyle=orthogonalEdgeStyle;rounded=0;orthogonalLoop=1;jettySize=auto;html=1;curved=0;exitX=1;exitY=0.83;exitDx=0;exitDy=0;exitPerimeter=0;entryX=1;entryY=1;entryDx=0;entryDy=-5;entryPerimeter=0;" parent="4DSJqVF6IeCHydDA3MtR-14" source="4DSJqVF6IeCHydDA3MtR-15" target="4DSJqVF6IeCHydDA3MtR-15" edge="1">
          <mxGeometry relative="1" as="geometry">
            <Array as="points">
              <mxPoint x="55" y="683" />
              <mxPoint x="120" y="683" />
              <mxPoint x="120" y="765" />
            </Array>
          </mxGeometry>
        </mxCell>
        <mxCell id="4DSJqVF6IeCHydDA3MtR-17" value=":Tenant_Notif_Scr" style="shape=umlLifeline;perimeter=lifelinePerimeter;whiteSpace=wrap;html=1;container=1;dropTarget=0;collapsible=0;recursiveResize=0;outlineConnect=0;portConstraint=eastwest;newEdgeStyle={&quot;curved&quot;:0,&quot;rounded&quot;:0};points=[[0,0.03,0,0,0]];" parent="1" vertex="1">
          <mxGeometry x="1265" y="517.5" width="120" height="750" as="geometry" />
        </mxCell>
        <mxCell id="4DSJqVF6IeCHydDA3MtR-18" value=":Tenant_Poll_Scr" style="shape=umlLifeline;perimeter=lifelinePerimeter;whiteSpace=wrap;html=1;container=1;dropTarget=0;collapsible=0;recursiveResize=0;outlineConnect=0;portConstraint=eastwest;newEdgeStyle={&quot;curved&quot;:0,&quot;rounded&quot;:0};" parent="1" vertex="1">
          <mxGeometry x="1550" y="213.37" width="100" height="1028.25" as="geometry" />
        </mxCell>
        <mxCell id="4DSJqVF6IeCHydDA3MtR-19" value=":Notification" style="shape=umlLifeline;perimeter=lifelinePerimeter;whiteSpace=wrap;html=1;container=1;dropTarget=0;collapsible=0;recursiveResize=0;outlineConnect=0;portConstraint=eastwest;newEdgeStyle={&quot;curved&quot;:0,&quot;rounded&quot;:0};points=[[0.5,0.12,0,0,0]];" parent="1" vertex="1">
          <mxGeometry x="1030" y="487.5" width="100" height="780" as="geometry" />
        </mxCell>
        <mxCell id="4DSJqVF6IeCHydDA3MtR-20" value=":Poll" style="shape=umlLifeline;perimeter=lifelinePerimeter;whiteSpace=wrap;html=1;container=1;dropTarget=0;collapsible=0;recursiveResize=0;outlineConnect=0;portConstraint=eastwest;newEdgeStyle={&quot;curved&quot;:0,&quot;rounded&quot;:0};" parent="1" vertex="1">
          <mxGeometry x="770" y="227.5" width="100" height="1040" as="geometry" />
        </mxCell>
        <mxCell id="4DSJqVF6IeCHydDA3MtR-21" value="" style="html=1;points=[[0,0,0,0,5],[0,0.33,0,0,0],[0,0.67,0,0,0],[0,1,0,0,-5],[1,0,0,0,5],[1,1,0,0,-5]];perimeter=orthogonalPerimeter;outlineConnect=0;targetShapes=umlLifeline;portConstraint=eastwest;newEdgeStyle={&quot;curved&quot;:0,&quot;rounded&quot;:0};" parent="4DSJqVF6IeCHydDA3MtR-20" vertex="1">
          <mxGeometry x="45" y="130" width="10" height="160" as="geometry" />
        </mxCell>
        <mxCell id="4DSJqVF6IeCHydDA3MtR-22" value="" style="html=1;points=[[0,0,0,0,0],[0,1,0,0,-5],[1,0,0,0,5],[1,0.98,0,0,0]];perimeter=orthogonalPerimeter;outlineConnect=0;targetShapes=umlLifeline;portConstraint=eastwest;newEdgeStyle={&quot;curved&quot;:0,&quot;rounded&quot;:0};" parent="1" vertex="1">
          <mxGeometry x="1320" y="597.5" width="10" height="65" as="geometry" />
        </mxCell>
        <mxCell id="4DSJqVF6IeCHydDA3MtR-23" value="" style="endArrow=classic;html=1;rounded=0;entryX=0;entryY=0;entryDx=0;entryDy=0;entryPerimeter=0;" parent="1" source="4DSJqVF6IeCHydDA3MtR-10" target="4DSJqVF6IeCHydDA3MtR-15" edge="1">
          <mxGeometry width="50" height="50" relative="1" as="geometry">
            <mxPoint x="460" y="447.5" as="sourcePoint" />
            <mxPoint x="590" y="347.5" as="targetPoint" />
          </mxGeometry>
        </mxCell>
        <mxCell id="4DSJqVF6IeCHydDA3MtR-24" value="Fill_Vote()" style="text;html=1;align=center;verticalAlign=middle;resizable=0;points=[];autosize=1;strokeColor=none;fillColor=none;" parent="1" vertex="1">
          <mxGeometry x="420" y="317.5" width="80" height="30" as="geometry" />
        </mxCell>
        <mxCell id="4DSJqVF6IeCHydDA3MtR-25" value="" style="endArrow=classic;html=1;rounded=0;entryX=0.5;entryY=0;entryDx=0;entryDy=0;entryPerimeter=0;" parent="1" source="4DSJqVF6IeCHydDA3MtR-15" target="4DSJqVF6IeCHydDA3MtR-21" edge="1">
          <mxGeometry width="50" height="50" relative="1" as="geometry">
            <mxPoint x="650" y="357.5" as="sourcePoint" />
            <mxPoint x="740" y="297.5" as="targetPoint" />
          </mxGeometry>
        </mxCell>
        <mxCell id="4DSJqVF6IeCHydDA3MtR-26" value="CheckData()" style="text;html=1;align=center;verticalAlign=middle;resizable=0;points=[];autosize=1;strokeColor=none;fillColor=none;" parent="1" vertex="1">
          <mxGeometry x="685" y="327.5" width="90" height="30" as="geometry" />
        </mxCell>
        <mxCell id="4DSJqVF6IeCHydDA3MtR-27" value="" style="endArrow=open;endSize=12;dashed=1;html=1;rounded=0;exitX=0;exitY=0.33;exitDx=0;exitDy=0;exitPerimeter=0;" parent="1" source="4DSJqVF6IeCHydDA3MtR-21" target="4DSJqVF6IeCHydDA3MtR-14" edge="1">
          <mxGeometry width="160" relative="1" as="geometry">
            <mxPoint x="790" y="407.5" as="sourcePoint" />
            <mxPoint x="700" y="377.5" as="targetPoint" />
          </mxGeometry>
        </mxCell>
        <mxCell id="4DSJqVF6IeCHydDA3MtR-28" value="returnCheck" style="text;html=1;align=center;verticalAlign=middle;resizable=0;points=[];autosize=1;strokeColor=none;fillColor=none;" parent="1" vertex="1">
          <mxGeometry x="685" y="377.5" width="90" height="30" as="geometry" />
        </mxCell>
        <mxCell id="4DSJqVF6IeCHydDA3MtR-29" value="Alternative" style="shape=umlFrame;whiteSpace=wrap;html=1;pointerEvents=0;width=60;height=40;" parent="1" vertex="1">
          <mxGeometry x="520" y="437.5" width="1150" height="822.5" as="geometry" />
        </mxCell>
        <mxCell id="4DSJqVF6IeCHydDA3MtR-30" value="[Data Correct]" style="text;html=1;align=center;verticalAlign=middle;resizable=0;points=[];autosize=1;strokeColor=none;fillColor=none;" parent="1" vertex="1">
          <mxGeometry x="680" y="445.5" width="100" height="30" as="geometry" />
        </mxCell>
        <mxCell id="4DSJqVF6IeCHydDA3MtR-31" value="" style="endArrow=none;dashed=1;html=1;rounded=0;exitX=0.001;exitY=0.464;exitDx=0;exitDy=0;exitPerimeter=0;entryX=0.999;entryY=0.464;entryDx=0;entryDy=0;entryPerimeter=0;" parent="1" source="4DSJqVF6IeCHydDA3MtR-29" target="4DSJqVF6IeCHydDA3MtR-29" edge="1">
          <mxGeometry width="50" height="50" relative="1" as="geometry">
            <mxPoint x="523.6899999999998" y="530.9" as="sourcePoint" />
            <mxPoint x="1670" y="597.5" as="targetPoint" />
            <Array as="points" />
          </mxGeometry>
        </mxCell>
        <mxCell id="4DSJqVF6IeCHydDA3MtR-32" value="[Data Incorrect]" style="text;html=1;align=center;verticalAlign=middle;resizable=0;points=[];autosize=1;strokeColor=none;fillColor=none;" parent="1" vertex="1">
          <mxGeometry x="680" y="837.5" width="110" height="30" as="geometry" />
        </mxCell>
        <mxCell id="4DSJqVF6IeCHydDA3MtR-33" value="DisplayError()" style="text;html=1;align=center;verticalAlign=middle;resizable=0;points=[];autosize=1;strokeColor=none;fillColor=none;" parent="1" vertex="1">
          <mxGeometry x="710" y="927.5" width="100" height="30" as="geometry" />
        </mxCell>
        <mxCell id="4DSJqVF6IeCHydDA3MtR-34" value="" style="endArrow=classic;html=1;rounded=0;exitX=1;exitY=0;exitDx=0;exitDy=5;exitPerimeter=0;entryX=0;entryY=0;entryDx=0;entryDy=5;entryPerimeter=0;" parent="1" edge="1">
          <mxGeometry width="50" height="50" relative="1" as="geometry">
            <mxPoint x="645" y="492.5" as="sourcePoint" />
            <mxPoint x="815" y="492.5" as="targetPoint" />
          </mxGeometry>
        </mxCell>
        <mxCell id="4DSJqVF6IeCHydDA3MtR-35" value="Update()" style="text;html=1;align=center;verticalAlign=middle;resizable=0;points=[];autosize=1;strokeColor=none;fillColor=none;" parent="1" vertex="1">
          <mxGeometry x="695" y="467.5" width="70" height="30" as="geometry" />
        </mxCell>
        <mxCell id="4DSJqVF6IeCHydDA3MtR-36" value="" style="endArrow=open;endSize=12;dashed=1;html=1;rounded=0;entryX=0;entryY=0.04;entryDx=0;entryDy=0;entryPerimeter=0;" parent="1" source="4DSJqVF6IeCHydDA3MtR-21" target="4DSJqVF6IeCHydDA3MtR-19" edge="1">
          <mxGeometry width="160" relative="1" as="geometry">
            <mxPoint x="1065" y="377.5" as="sourcePoint" />
            <mxPoint x="1000" y="357.5" as="targetPoint" />
          </mxGeometry>
        </mxCell>
        <mxCell id="4DSJqVF6IeCHydDA3MtR-37" value="&lt;p class=&quot;MsoNormal&quot;&gt;&lt;span lang=&quot;EL&quot;&gt;«&lt;/span&gt;create&lt;span lang=&quot;EL&quot;&gt;»&lt;/span&gt;&lt;/p&gt;" style="text;html=1;align=center;verticalAlign=middle;resizable=0;points=[];autosize=1;strokeColor=none;fillColor=none;" parent="1" vertex="1">
          <mxGeometry x="875" y="475.5" width="70" height="50" as="geometry" />
        </mxCell>
        <mxCell id="4DSJqVF6IeCHydDA3MtR-38" value="" style="endArrow=open;endSize=12;dashed=1;html=1;rounded=0;" parent="1" source="4DSJqVF6IeCHydDA3MtR-54" edge="1">
          <mxGeometry width="160" relative="1" as="geometry">
            <mxPoint x="1080" y="535.5" as="sourcePoint" />
            <mxPoint x="1265" y="537.5" as="targetPoint" />
          </mxGeometry>
        </mxCell>
        <mxCell id="4DSJqVF6IeCHydDA3MtR-39" value="&lt;p class=&quot;MsoNormal&quot;&gt;&lt;span lang=&quot;EL&quot;&gt;«&lt;/span&gt;create&lt;span lang=&quot;EL&quot;&gt;»&lt;/span&gt;&lt;/p&gt;" style="text;html=1;align=center;verticalAlign=middle;resizable=0;points=[];autosize=1;strokeColor=none;fillColor=none;" parent="1" vertex="1">
          <mxGeometry x="1150" y="497.5" width="70" height="50" as="geometry" />
        </mxCell>
        <mxCell id="4DSJqVF6IeCHydDA3MtR-40" value="" style="endArrow=classic;html=1;rounded=0;entryX=0;entryY=0;entryDx=0;entryDy=0;entryPerimeter=0;exitX=1;exitY=0.98;exitDx=0;exitDy=0;exitPerimeter=0;" parent="1" source="4DSJqVF6IeCHydDA3MtR-54" target="4DSJqVF6IeCHydDA3MtR-22" edge="1">
          <mxGeometry width="50" height="50" relative="1" as="geometry">
            <mxPoint x="1080.25" y="567.4999999999995" as="sourcePoint" />
            <mxPoint x="1320" y="586.5" as="targetPoint" />
          </mxGeometry>
        </mxCell>
        <mxCell id="4DSJqVF6IeCHydDA3MtR-42" value="" style="html=1;points=[[0,0,0,0,5],[0,1,0,0,-5],[1,0,0,0,5],[1,0.99,0,0,0]];perimeter=orthogonalPerimeter;outlineConnect=0;targetShapes=umlLifeline;portConstraint=eastwest;newEdgeStyle={&quot;curved&quot;:0,&quot;rounded&quot;:0};" parent="1" vertex="1">
          <mxGeometry x="815" y="727.5" width="10" height="70" as="geometry" />
        </mxCell>
        <mxCell id="4DSJqVF6IeCHydDA3MtR-43" value="" style="endArrow=classic;html=1;rounded=0;" parent="1" source="4DSJqVF6IeCHydDA3MtR-12" edge="1">
          <mxGeometry width="50" height="50" relative="1" as="geometry">
            <mxPoint x="1330" y="631.5899999999999" as="sourcePoint" />
            <mxPoint x="1320" y="637.5" as="targetPoint" />
          </mxGeometry>
        </mxCell>
        <mxCell id="4DSJqVF6IeCHydDA3MtR-44" value="SelectNotif()" style="text;html=1;align=center;verticalAlign=middle;resizable=0;points=[];autosize=1;strokeColor=none;fillColor=none;" parent="1" vertex="1">
          <mxGeometry x="390" y="607.5" width="90" height="30" as="geometry" />
        </mxCell>
        <mxCell id="4DSJqVF6IeCHydDA3MtR-45" value="" style="html=1;points=[[0,0.01,0,0,0],[0,0.57,0,0,0],[0,1,0,0,-5],[1,0,0,0,5],[1,1,0,0,-5]];perimeter=orthogonalPerimeter;outlineConnect=0;targetShapes=umlLifeline;portConstraint=eastwest;newEdgeStyle={&quot;curved&quot;:0,&quot;rounded&quot;:0};" parent="1" vertex="1">
          <mxGeometry x="1595" y="660" width="10" height="137.5" as="geometry" />
        </mxCell>
        <mxCell id="4DSJqVF6IeCHydDA3MtR-46" value="" style="endArrow=classic;html=1;rounded=0;" parent="1" source="4DSJqVF6IeCHydDA3MtR-45" target="4DSJqVF6IeCHydDA3MtR-42" edge="1">
          <mxGeometry width="50" height="50" relative="1" as="geometry">
            <mxPoint x="1750" y="927.5" as="sourcePoint" />
            <mxPoint x="1605" y="639.5" as="targetPoint" />
          </mxGeometry>
        </mxCell>
        <mxCell id="4DSJqVF6IeCHydDA3MtR-47" value="Update()" style="text;html=1;align=center;verticalAlign=middle;resizable=0;points=[];autosize=1;strokeColor=none;fillColor=none;" parent="1" vertex="1">
          <mxGeometry x="1175" y="695.5" width="70" height="30" as="geometry" />
        </mxCell>
        <mxCell id="4DSJqVF6IeCHydDA3MtR-48" value="" style="endArrow=classic;html=1;rounded=0;" parent="1" source="4DSJqVF6IeCHydDA3MtR-45" target="4DSJqVF6IeCHydDA3MtR-42" edge="1">
          <mxGeometry width="50" height="50" relative="1" as="geometry">
            <mxPoint x="1600" y="727.5" as="sourcePoint" />
            <mxPoint x="835" y="727.5" as="targetPoint" />
            <Array as="points">
              <mxPoint x="1210" y="747.5" />
            </Array>
          </mxGeometry>
        </mxCell>
        <mxCell id="4DSJqVF6IeCHydDA3MtR-49" value="Calculate()" style="text;html=1;align=center;verticalAlign=middle;resizable=0;points=[];autosize=1;strokeColor=none;fillColor=none;" parent="1" vertex="1">
          <mxGeometry x="1170" y="725.5" width="80" height="30" as="geometry" />
        </mxCell>
        <mxCell id="4DSJqVF6IeCHydDA3MtR-50" value="" style="endArrow=classic;html=1;rounded=0;exitX=1;exitY=0.99;exitDx=0;exitDy=0;exitPerimeter=0;" parent="1" source="4DSJqVF6IeCHydDA3MtR-42" target="4DSJqVF6IeCHydDA3MtR-45" edge="1">
          <mxGeometry width="50" height="50" relative="1" as="geometry">
            <mxPoint x="830" y="790.25" as="sourcePoint" />
            <mxPoint x="1595" y="780.25" as="targetPoint" />
            <Array as="points" />
          </mxGeometry>
        </mxCell>
        <mxCell id="4DSJqVF6IeCHydDA3MtR-51" value="displayResults()" style="text;html=1;align=center;verticalAlign=middle;resizable=0;points=[];autosize=1;strokeColor=none;fillColor=none;" parent="1" vertex="1">
          <mxGeometry x="1155" y="770.25" width="110" height="30" as="geometry" />
        </mxCell>
        <mxCell id="4DSJqVF6IeCHydDA3MtR-52" value="" style="endArrow=classic;html=1;rounded=0;entryX=0;entryY=0.01;entryDx=0;entryDy=0;entryPerimeter=0;exitX=1;exitY=0.98;exitDx=0;exitDy=0;exitPerimeter=0;" parent="1" source="4DSJqVF6IeCHydDA3MtR-22" target="4DSJqVF6IeCHydDA3MtR-45" edge="1">
          <mxGeometry width="50" height="50" relative="1" as="geometry">
            <mxPoint x="1330" y="657.5" as="sourcePoint" />
            <mxPoint x="1330" y="596.5" as="targetPoint" />
          </mxGeometry>
        </mxCell>
        <mxCell id="4DSJqVF6IeCHydDA3MtR-53" value="display()" style="text;html=1;align=center;verticalAlign=middle;resizable=0;points=[];autosize=1;strokeColor=none;fillColor=none;" parent="1" vertex="1">
          <mxGeometry x="1430" y="632.5" width="70" height="30" as="geometry" />
        </mxCell>
        <mxCell id="4DSJqVF6IeCHydDA3MtR-54" value="" style="html=1;points=[[0,0,0,0,5],[0,1,0,0,-5],[1,0,0,0,5],[1,0.98,0,0,0]];perimeter=orthogonalPerimeter;outlineConnect=0;targetShapes=umlLifeline;portConstraint=eastwest;newEdgeStyle={&quot;curved&quot;:0,&quot;rounded&quot;:0};" parent="1" vertex="1">
          <mxGeometry x="1075" y="537.5" width="10" height="60" as="geometry" />
        </mxCell>
        <mxCell id="4DSJqVF6IeCHydDA3MtR-55" value="" style="endArrow=classic;html=1;rounded=0;" parent="1" source="4DSJqVF6IeCHydDA3MtR-12" edge="1">
          <mxGeometry width="50" height="50" relative="1" as="geometry">
            <mxPoint x="250.00153846153808" y="695.5000000000005" as="sourcePoint" />
            <mxPoint x="1600" y="695.5" as="targetPoint" />
          </mxGeometry>
        </mxCell>
        <mxCell id="4DSJqVF6IeCHydDA3MtR-56" value="Vote()" style="text;html=1;align=center;verticalAlign=middle;resizable=0;points=[];autosize=1;strokeColor=none;fillColor=none;" parent="1" vertex="1">
          <mxGeometry x="380" y="665.5" width="60" height="30" as="geometry" />
        </mxCell>
        <mxCell id="4DSJqVF6IeCHydDA3MtR-58" value="" style="swimlane;startSize=0;strokeWidth=6;" parent="1" vertex="1">
          <mxGeometry x="-830" y="50" width="2550" height="1300" as="geometry" />
        </mxCell>
        <mxCell id="4DSJqVF6IeCHydDA3MtR-41" value="display()" style="text;html=1;align=center;verticalAlign=middle;resizable=0;points=[];autosize=1;strokeColor=none;fillColor=none;" parent="4DSJqVF6IeCHydDA3MtR-58" vertex="1">
          <mxGeometry x="1990" y="517.5" width="70" height="30" as="geometry" />
        </mxCell>
      </root>
    </mxGraphModel>
  </diagram>
</mxfile>
